<svg width="45" height="45" viewBox="0 0 45 45" fill="none" xmlns="http://www.w3.org/2000/svg">
<g clip-path="url(#clip0_838_56341)">
<path d="M27.4904 43.6576C39.1724 40.9004 46.4073 29.1951 43.6501 17.5131C40.8929 5.83112 29.1877 -1.40386 17.5057 1.35335C5.82365 4.11055 -1.41133 15.8158 1.34587 27.4978C4.10308 39.1798 15.8084 46.4148 27.4904 43.6576Z" stroke="#242422" stroke-width="1.5"/>
<mask id="mask0_838_56341" style="mask-type:luminance" maskUnits="userSpaceOnUse" x="9" y="8" width="27" height="26">
<path d="M35.1462 8.47461H9.85547V33.7654H35.1462V8.47461Z" fill="white"/>
</mask>
<g mask="url(#mask0_838_56341)">
<path d="M30.4039 29.0323C28.666 29.0323 27.2451 27.6318 27.2451 25.8939C27.2451 24.6979 27.9198 23.5938 28.9931 23.0623L29.6269 26.0473H29.6474C29.7189 26.4051 30.0358 26.6708 30.4039 26.6708C30.8434 26.6708 31.191 26.3131 31.191 25.8837L31.1603 25.7201H31.1808L30.547 22.7351C32.2848 22.8067 33.6444 24.2787 33.5729 26.0166C33.5013 27.7136 32.111 29.0425 30.4141 29.0425M22.0111 24.2583L20.1812 18.779H26.3966L22.0111 24.2583ZM19.2816 25.0966C19.0772 23.8801 18.4025 22.7965 17.4109 22.0707L18.7398 19.4128L20.631 25.0966H19.2816ZM14.6099 29.0527C12.8618 29.0527 11.4409 27.642 11.4409 25.9041C11.4409 24.1561 12.8516 22.7351 14.5895 22.7351C14.8144 22.7351 15.0495 22.7556 15.2641 22.8067L13.8943 25.5464C13.833 25.6588 13.8023 25.7815 13.8023 25.9041C13.8023 26.3335 14.1499 26.6913 14.5792 26.6913C14.8859 26.6913 15.1517 26.5175 15.2846 26.2517L16.6442 23.5325C17.9629 24.6672 18.106 26.6606 16.9713 27.9691C16.3682 28.6643 15.4993 29.0629 14.5792 29.0629M30.3834 21.1608H30.179L28.9931 15.6304H31.9679V14.0459H28.022C27.5824 14.0459 27.2348 14.4037 27.2348 14.833L27.2553 14.9966L27.7255 17.2047H19.6394L18.8523 14.833H20.9173V13.2485H15.3868V14.833H17.186L18.0038 17.3069L15.9695 21.3653C13.465 20.5986 10.8173 22.0093 10.0506 24.5139C9.28391 27.0184 10.6946 29.6661 13.1992 30.4328C15.7037 31.1995 18.3514 29.7887 19.1181 27.2842C19.1794 27.09 19.2203 26.8855 19.2612 26.6913H21.3262C21.8066 26.6913 22.2564 26.4766 22.5631 26.0984L28.1447 19.1265L28.6558 21.4982C26.233 22.4693 25.0472 25.2295 26.0286 27.6522C26.9997 30.075 29.7598 31.2608 32.1826 30.2896C34.6054 29.3185 35.7912 26.5584 34.82 24.1356C34.1045 22.3364 32.3564 21.1608 30.4141 21.1608" fill="#242422"/>
</g>
</g>
<defs>
<clipPath id="clip0_838_56341">
<rect width="45" height="45" fill="white"/>
</clipPath>
</defs>
</svg>
